<svg width="26" height="24" viewBox="0 0 26 24" fill="none" xmlns="http://www.w3.org/2000/svg">
<g id="Group 37550">
<path id="Vector" d="M25.4729 5.54024C25.2497 5.15341 24.93 4.83105 24.545 4.6046C24.16 4.37815 23.7229 4.25533 23.2764 4.24814H6.73751L5.98809 1.328C5.91237 1.04612 5.74345 0.798171 5.50882 0.624549C5.2742 0.450928 4.9877 0.361859 4.69599 0.371852H2.1118C1.76911 0.371852 1.44046 0.507983 1.19815 0.750298C0.955833 0.992613 0.819702 1.32126 0.819702 1.66395C0.819702 2.00663 0.955833 2.33528 1.19815 2.5776C1.44046 2.81991 1.76911 2.95605 2.1118 2.95605H3.714L7.28019 16.213C7.35591 16.4949 7.52483 16.7428 7.75946 16.9164C7.99408 17.09 8.28058 17.1791 8.57229 17.1691H20.2012C20.4398 17.1684 20.6735 17.1016 20.8765 16.9762C21.0795 16.8507 21.2438 16.6716 21.3511 16.4585L25.5892 7.98231C25.7729 7.59728 25.8584 7.17277 25.8381 6.74665C25.8178 6.32054 25.6924 5.90607 25.4729 5.54024ZM19.4001 14.5849H9.55428L7.44816 6.83234H23.2764L19.4001 14.5849Z" fill="#424242"/>
<path id="Vector_2" d="M7.92701 23.6287C8.99742 23.6287 9.86515 22.761 9.86515 21.6906C9.86515 20.6202 8.99742 19.7524 7.92701 19.7524C6.8566 19.7524 5.98886 20.6202 5.98886 21.6906C5.98886 22.761 6.8566 23.6287 7.92701 23.6287Z" fill="#424242"/>
<path id="Vector_3" d="M20.8476 23.6287C21.918 23.6287 22.7857 22.761 22.7857 21.6906C22.7857 20.6202 21.918 19.7524 20.8476 19.7524C19.7772 19.7524 18.9095 20.6202 18.9095 21.6906C18.9095 22.761 19.7772 23.6287 20.8476 23.6287Z" fill="#424242"/>
</g>
</svg>
