<svg width="18" height="19" viewBox="0 0 18 19" fill="none" xmlns="http://www.w3.org/2000/svg">
<g id="circle-flags:uk" clip-path="url(#clip0_4_3795)">
<mask id="mask0_4_3795" style="mask-type:alpha" maskUnits="userSpaceOnUse" x="0" y="0" width="18" height="19">
<g id="svgIDa">
<path id="Vector" d="M9 0.5C13.9706 0.5 18 4.52944 18 9.5C18 14.4706 13.9706 18.5 9 18.5C4.02944 18.5 0 14.4706 0 9.5C0 4.52944 4.02944 0.5 9 0.5Z" fill="white"/>
</g>
</mask>
<g mask="url(#mask0_4_3795)">
<g id="Group">
<path id="Vector_2" d="M0 18.5L0.28125 17.7266L0 16.918V16.1094L1.125 14.2109L0 12.3125V11.1875L1.125 9.5L0 7.8125V6.6875L1.125 4.78906L0 2.89062V0.5L0.773438 0.78125L1.58203 0.5H2.39062L4.28906 1.625L6.1875 0.5H7.3125L9 1.625L10.6875 0.5H11.8125L13.7109 1.625L15.6094 0.5H18L17.7188 1.27344L18 2.08203V2.89062L16.875 4.78906L18 6.6875V7.8125L16.875 9.5L18 11.1875V12.3125L16.875 14.2109L18 16.1094V18.5L17.2266 18.2188L16.418 18.5H15.6094L13.7109 17.375L11.8125 18.5H10.6875L9 17.375L7.3125 18.5H6.1875L4.28906 17.375L2.39062 18.5H0Z" fill="#EEEEEE"/>
<path id="Vector_3" d="M11.8125 18.5V14.7031L15.6094 18.5H11.8125ZM18 16.1094L14.2031 12.3125H18V16.1094ZM0 12.3125H3.79688L0 16.1094V12.3125ZM2.39062 18.5L6.1875 14.7031V18.5H2.39062ZM6.1875 0.5V4.29688L2.39062 0.5H6.1875ZM0 2.89062L3.79688 6.6875H0V2.89062ZM18 6.6875H14.2031L18 2.89062V6.6875ZM15.6094 0.5L11.8125 4.29688V0.5H15.6094Z" fill="#0052B4"/>
<path id="Vector_4" d="M0 18.5V16.918L4.60547 12.3125H6.1875L0 18.5ZM7.3125 18.5V11.1875H0V7.8125H7.3125V0.5H10.6875V7.8125H18V11.1875H10.6875V18.5H7.3125ZM16.418 18.5L11.8125 13.8945V12.3125L18 18.5H16.418ZM6.1875 6.6875L0 0.5H1.58203L6.1875 5.10547V6.6875ZM11.8125 6.6875L18 0.5V2.08203L13.3945 6.6875H11.8125Z" fill="#D80027"/>
</g>
</g>
</g>
<defs>
<clipPath id="clip0_4_3795">
<rect width="18" height="18" fill="white" transform="matrix(1 0 0 -1 0 18.5)"/>
</clipPath>
</defs>
</svg>
