<svg width="16" height="20" viewBox="0 0 16 20" fill="none" xmlns="http://www.w3.org/2000/svg">
<g id="Profile">
<g id="Group 6">
<g id="Union">
<path fill-rule="evenodd" clip-rule="evenodd" d="M7.8889 10.6188H7.92089C10.8489 10.6188 13.2299 8.23776 13.2299 5.30976C13.2299 2.38176 10.8489 -0.000244141 7.92089 -0.000244141C4.99189 -0.000244141 2.60989 2.38176 2.60989 5.30676C2.59989 8.22676 4.9669 10.6098 7.8889 10.6188ZM4.03789 5.30976C4.03789 3.16876 5.77989 1.42776 7.92089 1.42776C10.0609 1.42776 11.8019 3.16876 11.8019 5.30976C11.8019 7.44976 10.0609 9.19176 7.92089 9.19176H7.89189C5.75989 9.18376 4.03089 7.44376 4.03789 5.30976Z" fill="#2D9CDB"/>
<path fill-rule="evenodd" clip-rule="evenodd" d="M-0.00012207 16.1731C-0.00012207 19.8701 5.96188 19.8701 7.92088 19.8701C11.3199 19.8701 15.8399 19.4891 15.8399 16.1931C15.8399 12.4961 9.87988 12.4961 7.92088 12.4961C4.52088 12.4961 -0.00012207 12.8771 -0.00012207 16.1731ZM1.49988 16.1731C1.49988 14.7281 3.65988 13.9961 7.92088 13.9961C12.1809 13.9961 14.3399 14.7351 14.3399 16.1931C14.3399 17.6381 12.1809 18.3701 7.92088 18.3701C3.65988 18.3701 1.49988 17.6311 1.49988 16.1731Z" fill="#2D9CDB"/>
</g>
</g>
</g>
</svg>
