<svg width="20" height="20" viewBox="0 0 20 20" fill="none" xmlns="http://www.w3.org/2000/svg">
<g id="Send">
<mask id="mask0_191_5" style="mask-type:luminance" maskUnits="userSpaceOnUse" x="0" y="0" width="20" height="20">
<path id="Clip 2" fill-rule="evenodd" clip-rule="evenodd" d="M0 0.000427246H19.499V19.4994H0V0.000427246Z" fill="white"/>
</mask>
<g mask="url(#mask0_191_5)">
<path id="Fill 1" fill-rule="evenodd" clip-rule="evenodd" d="M8.80488 11.8178L12.4619 17.7508C12.6219 18.0108 12.8719 18.0078 12.9729 17.9938C13.0739 17.9798 13.3169 17.9178 13.4049 17.6228L17.9779 2.17783C18.0579 1.90483 17.9109 1.71883 17.8449 1.65283C17.7809 1.58683 17.5979 1.44583 17.3329 1.52083L1.87688 6.04683C1.58388 6.13283 1.51988 6.37883 1.50588 6.47983C1.49188 6.58283 1.48788 6.83783 1.74688 7.00083L7.74788 10.7538L13.0499 5.39583C13.3409 5.10183 13.8159 5.09883 14.1109 5.38983C14.4059 5.68083 14.4079 6.15683 14.1169 6.45083L8.80488 11.8178ZM12.8949 19.4998C12.1989 19.4998 11.5609 19.1458 11.1849 18.5378L7.30788 12.2468L0.951884 8.27183C0.266884 7.84283 -0.0911161 7.07883 0.0198839 6.27583C0.129884 5.47283 0.680884 4.83483 1.45488 4.60783L16.9109 0.0818327C17.6219 -0.126167 18.3839 0.0708326 18.9079 0.592833C19.4319 1.11983 19.6269 1.88983 19.4149 2.60383L14.8419 18.0478C14.6129 18.8248 13.9729 19.3738 13.1719 19.4808C13.0779 19.4928 12.9869 19.4998 12.8949 19.4998Z" fill="#2D9CDB"/>
</g>
</g>
</svg>
