<svg width="12" height="13" viewBox="0 0 12 13" fill="none" xmlns="http://www.w3.org/2000/svg">
<g id="Icon / sign-in">
<path id="Icon" fill-rule="evenodd" clip-rule="evenodd" d="M10.5 2.5625C10.5 1.83763 9.91237 1.25 9.1875 1.25H7.3125C7.00184 1.25 6.75 1.50184 6.75 1.8125C6.75 2.12316 7.00184 2.375 7.3125 2.375H9.1875C9.29105 2.375 9.375 2.45895 9.375 2.5625V10.4375C9.375 10.5411 9.29105 10.625 9.1875 10.625H7.3125C7.00184 10.625 6.75 10.8769 6.75 11.1875C6.75 11.4981 7.00184 11.75 7.3125 11.75H9.1875C9.91237 11.75 10.5 11.1624 10.5 10.4375V2.5625ZM5.5795 5.9375L4.10227 4.46025C3.8826 4.24058 3.8826 3.88442 4.10227 3.66475C4.32195 3.44508 4.67808 3.44508 4.89775 3.66475L7.33525 6.10225C7.55492 6.32192 7.55492 6.67808 7.33525 6.89775L4.89775 9.33523C4.67808 9.5549 4.32195 9.5549 4.10227 9.33523C3.8826 9.11555 3.8826 8.75945 4.10227 8.53977L5.5795 7.0625H1.3125C1.00185 7.0625 0.75 6.81066 0.75 6.5C0.75 6.18933 1.00185 5.9375 1.3125 5.9375H5.5795Z" fill="#FBFBFB"/>
</g>
</svg>
