<svg width="84" height="36" viewBox="0 0 84 36" fill="none" xmlns="http://www.w3.org/2000/svg">
<g id="Vector">
<path d="M4.42192 9.44194V22.7194H9.72372V26.4677H0V9.44194H4.42192Z" fill="#2D9CDB"/>
<path d="M69.7867 17.9548C69.7867 18.6323 69.9145 19.257 70.1702 19.829C70.4259 20.4011 70.7718 20.8979 71.208 21.3194C71.6442 21.7409 72.148 22.072 72.7196 22.3129C73.3062 22.5387 73.9228 22.6516 74.5696 22.6516C75.2163 22.6516 75.8255 22.5387 76.397 22.3129C76.9836 22.072 77.495 21.7409 77.9311 21.3194C78.3823 20.8979 78.7358 20.4011 78.9915 19.829C79.2472 19.257 79.375 18.6323 79.375 17.9548C79.375 17.2774 79.2472 16.6527 78.9915 16.0806C78.7358 15.5086 78.3823 15.0118 77.9311 14.5903C77.495 14.1688 76.9836 13.8452 76.397 13.6194C75.8255 13.3785 75.2163 13.2581 74.5696 13.2581C73.9228 13.2581 73.3062 13.3785 72.7196 13.6194C72.148 13.8452 71.6442 14.1688 71.208 14.5903C70.7718 15.0118 70.4259 15.5086 70.1702 16.0806C69.9145 16.6527 69.7867 17.2774 69.7867 17.9548ZM65.1617 17.9548C65.1617 16.6903 65.3948 15.5161 65.8611 14.4323C66.3273 13.3333 66.9741 12.3774 67.8013 11.5645C68.6285 10.7516 69.6137 10.1194 70.7568 9.66774C71.9149 9.20108 73.1858 8.96774 74.5696 8.96774C75.9383 8.96774 77.2017 9.20108 78.3598 9.66774C79.5179 10.1194 80.5106 10.7516 81.3378 11.5645C82.1801 12.3774 82.8344 13.3333 83.3006 14.4323C83.7669 15.5161 84 16.6903 84 17.9548C84 19.2194 83.7669 20.4011 83.3006 21.5C82.8344 22.5839 82.1801 23.5323 81.3378 24.3452C80.5106 25.1581 79.5179 25.7978 78.3598 26.2645C77.2017 26.7161 75.9383 26.9419 74.5696 26.9419C73.1858 26.9419 71.9149 26.7161 70.7568 26.2645C69.6137 25.7978 68.6285 25.1581 67.8013 24.3452C66.9741 23.5323 66.3273 22.5839 65.8611 21.5C65.3948 20.4011 65.1617 19.2194 65.1617 17.9548Z" fill="#2D9CDB"/>
<path fill-rule="evenodd" clip-rule="evenodd" d="M48.9796 0.5H14.0103V24.2097C14.0103 30.4452 19.0607 35.5 25.2907 35.5H60.26V11.7903C60.26 5.55485 55.2096 0.5 48.9796 0.5ZM22.2901 19.829C22.0344 19.257 21.9066 18.6323 21.9066 17.9548C21.9066 17.2774 22.0344 16.6527 22.2901 16.0806C22.5458 15.5086 22.8917 15.0118 23.3279 14.5903C23.7641 14.1688 24.268 13.8452 24.8395 13.6194C25.4261 13.3785 26.0427 13.2581 26.6895 13.2581C27.3362 13.2581 27.9454 13.3785 28.5169 13.6194C29.1035 13.8452 29.6149 14.1688 30.051 14.5903C30.5023 15.0118 30.8557 15.5086 31.1114 16.0806C31.3671 16.6527 31.4949 17.2774 31.4949 17.9548C31.4949 18.6323 31.3671 19.257 31.1114 19.829C30.8557 20.4011 30.5023 20.8979 30.051 21.3194C29.6149 21.7409 29.1035 22.072 28.5169 22.3129C27.9454 22.5387 27.3362 22.6516 26.6895 22.6516C26.0427 22.6516 25.4261 22.5387 24.8395 22.3129C24.268 22.072 23.7641 21.7409 23.3279 21.3194C22.8917 20.8979 22.5458 20.4011 22.2901 19.829ZM17.981 14.4323C17.5147 15.5161 17.2816 16.6903 17.2816 17.9548C17.2816 19.2194 17.5147 20.4011 17.981 21.5C18.4473 22.5839 19.094 23.5323 19.9212 24.3452C20.7485 25.1581 21.7336 25.7978 22.8767 26.2645C24.0348 26.7161 25.3057 26.9419 26.6895 26.9419C28.0582 26.9419 29.3216 26.7161 30.4797 26.2645C31.6378 25.7978 32.6305 25.1581 33.4577 24.3452C34.3 23.5323 34.9543 22.5839 35.4205 21.5C35.8868 20.4011 36.1199 19.2194 36.1199 17.9548C36.1199 16.6903 35.8868 15.5161 35.4205 14.4323C34.9543 13.3333 34.3 12.3774 33.4577 11.5645C32.6305 10.7516 31.6378 10.1194 30.4797 9.66774C29.3216 9.20108 28.0582 8.96774 26.6895 8.96774C25.3057 8.96774 24.0348 9.20108 22.8767 9.66774C21.7336 10.1194 20.7485 10.7516 19.9212 11.5645C19.094 12.3774 18.4473 13.3333 17.981 14.4323ZM58.2251 16.9387H49.449V20.371H53.0813C53.0061 20.8677 52.8632 21.2892 52.6526 21.6355C52.442 21.9817 52.1713 22.2677 51.8404 22.4935C51.5246 22.7043 51.1636 22.8624 50.7575 22.9677C50.3514 23.0581 49.9303 23.1032 49.4941 23.1032C48.7571 23.1032 48.1104 22.9828 47.5539 22.7419C46.9974 22.486 46.5311 22.1323 46.1551 21.6806C45.7791 21.229 45.4933 20.6946 45.2978 20.0774C45.1173 19.4602 45.027 18.7903 45.027 18.0677C45.027 17.2699 45.1323 16.5473 45.3429 15.9C45.5685 15.2527 45.8693 14.7032 46.2453 14.2516C46.6364 13.7849 47.1026 13.4312 47.6441 13.1903C48.1856 12.9344 48.7872 12.8065 49.449 12.8065C50.2461 12.8065 50.953 13.0097 51.5697 13.4161C52.2014 13.8226 52.7128 14.4925 53.1038 15.4258L57.3001 13.6871C56.518 12.0763 55.4577 10.8871 54.1191 10.1194C52.7804 9.35161 51.2238 8.96774 49.449 8.96774C48.0803 8.96774 46.8394 9.18602 45.7264 9.62258C44.6134 10.0591 43.6583 10.6688 42.8612 11.4516C42.0791 12.2344 41.4699 13.1828 41.0338 14.2968C40.6126 15.3957 40.4021 16.6075 40.4021 17.9323C40.4021 19.272 40.6202 20.4989 41.0563 21.6129C41.4925 22.7118 42.1017 23.6602 42.8838 24.4581C43.6659 25.2409 44.5984 25.8505 45.6813 26.2871C46.7793 26.7237 47.99 26.9419 49.3136 26.9419C50.2762 26.9419 51.1937 26.8215 52.066 26.5806C52.9384 26.3398 53.7355 25.9935 54.4575 25.5419C55.1945 25.0753 55.8337 24.5032 56.3751 23.8258C56.9166 23.1333 57.3453 22.343 57.6611 21.4548C57.8867 20.8226 58.0371 20.1376 58.1123 19.4C58.1875 18.6624 58.2251 17.8419 58.2251 16.9387Z" fill="#2D9CDB"/>
</g>
</svg>
